<svg class="typst-doc" viewBox="0 0 362.37202362204715 247.64088661417165" width="362.37202362204715pt" height="247.64088661417165pt" xmlns="http://www.w3.org/2000/svg" xmlns:xlink="http://www.w3.org/1999/xlink" xmlns:h5="http://www.w3.org/1999/xhtml">
    <path class="typst-shape" fill="#00000000" fill-rule="nonzero" d="M 0 0v 247.64088 h 362.372 v -247.64088 Z "/>
    <g>
        <g class="typst-group" transform="matrix(1 0 0 1 14.173228346456693 14.173228346456693)">
            <g>
                <path class="typst-shape" fill="none" stroke="#000000" stroke-width="1" stroke-linecap="butt" stroke-linejoin="miter" stroke-miterlimit="4" transform="matrix(1 0 0 1 0 49.215685039370086)" d="M 0 0v 56.692913 h 56.692913 v -56.692913 h -56.692913 Z "/>
                <path class="typst-shape" fill="none" transform="matrix(1 0 0 1 6.016456692913387 65.57764173228345)" d="M 0 0h 44.66 v 23.969 h -44.66 v -23.969 Z "/>
                <g class="typst-group">
                    <g>
                        <g class="typst-group" transform="matrix(1 0 0 1 6.016456629921257 65.57764166929135)">
                            <g>
                                <g class="typst-text" transform="matrix(1 0 0 -1 8.838500062992127 7.260000000000001)">
                                    <use xlink:href="#gF12551EE4F7AD0C01D63DC0AF389BD66" x="0" y="0" fill="#000000" fill-rule="nonzero"/>
                                    <use xlink:href="#g578BA9AB4ADF69A8BF04C6BFBDB78CD1" x="6.280999999999999" y="0" fill="#000000" fill-rule="nonzero"/>
                                    <use xlink:href="#g39742D12BDB7A4F3CA2C5AEFB0A985B9" x="9.085999999999999" y="0" fill="#000000" fill-rule="nonzero"/>
                                    <use xlink:href="#g9A3EF6A028EF9DECCE8D76E8746E78DC" x="11.791999999999998" y="0" fill="#000000" fill-rule="nonzero"/>
                                    <use xlink:href="#g9886564FD86D4E8960192310D660FCCE" x="17.247999999999998" y="0" fill="#000000" fill-rule="nonzero"/>
                                    <use xlink:href="#g5971BBF39DC283778FA60B0F8CBA56DA" x="23.265" y="0" fill="#000000" fill-rule="nonzero"/>
                                </g>
                                <g class="typst-text" transform="matrix(1 0 0 -1 0.00000006299212940589994 21.67)">
                                    <use xlink:href="#g519A4BF56E635986B5D2D283DDE5FB68" x="0" y="0" fill="#000000" fill-rule="nonzero"/>
                                    <use xlink:href="#g7C43B2764BFF24EB370A881315D6BFB3" x="3.201" y="0" fill="#000000" fill-rule="nonzero"/>
                                    <use xlink:href="#gAF180C279F90FFD31F6749945F6F3815" x="7.986000000000001" y="0" fill="#000000" fill-rule="nonzero"/>
                                    <use xlink:href="#g80996BF9CFE0E20CE93DAF727EA17489" x="10.714" y="0" fill="#000000" fill-rule="nonzero"/>
                                    <use xlink:href="#gC0DE93A68ED13753005BF62D5B95517D" x="13.321000000000002" y="0" fill="#000000" fill-rule="nonzero"/>
                                    <use xlink:href="#g100C688F8CE7411AC6DF96A3DF6826C7" x="18.601" y="0" fill="#000000" fill-rule="nonzero"/>
                                    <use xlink:href="#gD4AC00E808AA06B9F699765E9F1A4215" x="24.375999999999998" y="0" fill="#000000" fill-rule="nonzero"/>
                                    <use xlink:href="#g9AE33AD8993F8DA6AD4228A71E474377" x="28.083" y="0" fill="#000000" fill-rule="nonzero"/>
                                    <use xlink:href="#g2F4707146A463F9C8F904ED778D703F2" x="30.744999999999997" y="0" fill="#000000" fill-rule="nonzero"/>
                                    <use xlink:href="#g55FA615AB5D1D53E02932730DFDD2087" x="36.509" y="0" fill="#000000" fill-rule="nonzero"/>
                                    <use xlink:href="#gB3598013039638CBFCC34220C53AFBC3" x="41.437" y="0" fill="#000000" fill-rule="nonzero"/>
                                </g>
                            </g>
                        </g>
                    </g>
                </g>
                <path class="typst-shape" fill="none" stroke="#000000" stroke-width="1" stroke-linecap="butt" stroke-linejoin="miter" stroke-miterlimit="4" transform="matrix(1 0 0 1 226.77165354330708 49.215685039370086)" d="M 0 0v 56.692913 h 85.03937 v -56.692913 h -85.03937 Z "/>
                <path class="typst-shape" fill="none" transform="matrix(1 0 0 1 238.04583858267716 65.57764173228345)" d="M 0 0h 62.491 v 23.969 h -62.491 v -23.969 Z "/>
                <g class="typst-group">
                    <g>
                        <g class="typst-group" transform="matrix(1 0 0 1 238.0458384566929 65.57764166929135)">
                            <g>
                                <g class="typst-text" transform="matrix(1 0 0 -1 0.00000012598425165042427 7.260000000000001)">
                                    <use xlink:href="#g9FD5FF29665F86969309E3EE2E998EB0" x="0" y="0" fill="#000000" fill-rule="nonzero"/>
                                    <use xlink:href="#g9A3EF6A028EF9DECCE8D76E8746E78DC" x="5.8740000000000006" y="0" fill="#000000" fill-rule="nonzero"/>
                                    <use xlink:href="#g7E1B152A8FE386387AE99234EE6D4387" x="11.330000000000002" y="0" fill="#000000" fill-rule="nonzero"/>
                                    <use xlink:href="#g86A48C98A4D6EC553F2F75980CEC2100" x="15.422" y="0" fill="#000000" fill-rule="nonzero"/>
                                    <use xlink:href="#g9A3EF6A028EF9DECCE8D76E8746E78DC" x="20.515" y="0" fill="#000000" fill-rule="nonzero"/>
                                    <use xlink:href="#g7E1B152A8FE386387AE99234EE6D4387" x="25.971" y="0" fill="#000000" fill-rule="nonzero"/>
                                    <use xlink:href="#g49074C73CF9421B24BCEFA6FEB994C0B" x="31.988" y="0" fill="#000000" fill-rule="nonzero"/>
                                    <use xlink:href="#g74E81F83BD1E4EB8543ABADA1156E800" x="35.321" y="0" fill="#000000" fill-rule="nonzero"/>
                                    <use xlink:href="#g578BA9AB4ADF69A8BF04C6BFBDB78CD1" x="40.754999999999995" y="0" fill="#000000" fill-rule="nonzero"/>
                                    <use xlink:href="#gA4CE18833FBAE563854F3CEE97313D5B" x="43.559999999999995" y="0" fill="#000000" fill-rule="nonzero"/>
                                    <use xlink:href="#gE562EFCAC1A64298105D5CEEC983E15A" x="49.10399999999999" y="0" fill="#000000" fill-rule="nonzero"/>
                                    <use xlink:href="#g9BC291DFA7C819CA74FDFA48B6BC4E53" x="53.712999999999994" y="0" fill="#000000" fill-rule="nonzero"/>
                                    <use xlink:href="#gF9F99EA4DC41818D464C13B8B259FB18" x="59.157999999999994" y="0" fill="#000000" fill-rule="nonzero"/>
                                </g>
                                <g class="typst-text" transform="matrix(1 0 0 -1 7.909000125984253 21.67)">
                                    <use xlink:href="#g519A4BF56E635986B5D2D283DDE5FB68" x="0" y="0" fill="#000000" fill-rule="nonzero"/>
                                    <use xlink:href="#g3FB68268F2561988D3206298C043A70A" x="3.201" y="0" fill="#000000" fill-rule="nonzero"/>
                                    <use xlink:href="#gC0DE93A68ED13753005BF62D5B95517D" x="7.623000000000001" y="0" fill="#000000" fill-rule="nonzero"/>
                                    <use xlink:href="#gAE7280CADCFAF0DB0FA3A274A28AA2D" x="12.903" y="0" fill="#000000" fill-rule="nonzero"/>
                                    <use xlink:href="#g2B079F89617C019AABE91FA40E5F7181" x="16.731" y="0" fill="#000000" fill-rule="nonzero"/>
                                    <use xlink:href="#gC0DE93A68ED13753005BF62D5B95517D" x="21.615000000000002" y="0" fill="#000000" fill-rule="nonzero"/>
                                    <use xlink:href="#gAE7280CADCFAF0DB0FA3A274A28AA2D" x="26.895000000000003" y="0" fill="#000000" fill-rule="nonzero"/>
                                    <use xlink:href="#g9AE33AD8993F8DA6AD4228A71E474377" x="30.096000000000004" y="0" fill="#000000" fill-rule="nonzero"/>
                                    <use xlink:href="#g2F4707146A463F9C8F904ED778D703F2" x="32.758" y="0" fill="#000000" fill-rule="nonzero"/>
                                    <use xlink:href="#g55FA615AB5D1D53E02932730DFDD2087" x="38.522000000000006" y="0" fill="#000000" fill-rule="nonzero"/>
                                    <use xlink:href="#gB3598013039638CBFCC34220C53AFBC3" x="43.45" y="0" fill="#000000" fill-rule="nonzero"/>
                                </g>
                            </g>
                        </g>
                    </g>
                </g>
                <path class="typst-shape" fill="none" stroke="#000000" stroke-width="1" stroke-linecap="butt" stroke-linejoin="miter" stroke-miterlimit="4" transform="matrix(1 0 0 1 240.9448818897638 190.94797322834486)" d="M 0 0v 28.346457 h 56.692913 v -28.346457 h -56.692913 Z "/>
                <path class="typst-shape" fill="none" transform="matrix(1 0 0 1 242.6658385826772 200.36370157480158)" d="M 0 0h 53.251 v 9.515 h -53.251 v -9.515 Z "/>
                <g class="typst-group">
                    <g>
                        <g class="typst-group" transform="matrix(1 0 0 1 242.665838503937 200.36370151180947)">
                            <g>
                                <g class="typst-text" transform="matrix(1 0 0 -1 0.00000007874015549117127 7.260000000000001)">
                                    <use xlink:href="#gFB33E49685E6756572402E8EE9705808" x="0" y="0" fill="#000000" fill-rule="nonzero"/>
                                    <use xlink:href="#g41315F682C0018EA137AB43B97CD2AD7" x="7.997" y="0" fill="#000000" fill-rule="nonzero"/>
                                    <use xlink:href="#g265F13605994D09157FD0886362E3B31" x="13.453" y="0" fill="#000000" fill-rule="nonzero"/>
                                    <use xlink:href="#g70F41F0E1DEAADCA368ACEA25E0B7EE2" x="16.874" y="0" fill="#000000" fill-rule="nonzero"/>
                                    <use xlink:href="#g3E0C2171C1B8258A9A66A9950CC38BE9" x="22.846999999999998" y="0" fill="#000000" fill-rule="nonzero"/>
                                    <use xlink:href="#gA4CE18833FBAE563854F3CEE97313D5B" x="28.951999999999998" y="0" fill="#000000" fill-rule="nonzero"/>
                                    <use xlink:href="#g871F699C09C28D280052A6EF37E4F91D" x="34.495999999999995" y="0" fill="#000000" fill-rule="nonzero"/>
                                    <use xlink:href="#g5971BBF39DC283778FA60B0F8CBA56DA" x="40.413999999999994" y="0" fill="#000000" fill-rule="nonzero"/>
                                    <use xlink:href="#g9A3EF6A028EF9DECCE8D76E8746E78DC" x="43.977999999999994" y="0" fill="#000000" fill-rule="nonzero"/>
                                    <use xlink:href="#g7E1B152A8FE386387AE99234EE6D4387" x="49.434" y="0" fill="#000000" fill-rule="nonzero"/>
                                </g>
                            </g>
                        </g>
                    </g>
                </g>
                <path class="typst-shape" fill="none" stroke="#000000" stroke-width="1" stroke-linecap="butt" stroke-linejoin="miter" stroke-miterlimit="4" transform="matrix(1 0 0 1 56.69291338582677 63.388913385826775)" d="M 0 0h 162.98544 "/>
                <path class="typst-shape" fill="#000000" fill-rule="nonzero" stroke="#000000" stroke-width="1" stroke-linecap="butt" stroke-linejoin="miter" stroke-miterlimit="4" transform="matrix(1 0 0 1 219.67836151181103 61.26292913385827)" d="M 0 0m 5.6692915 2.1259842 l -5.6692915 2.1259842 v -4.2519684 l 5.6692915 2.1259842 Z "/>
                <path class="typst-shape" fill="none" transform="matrix(1 0 0 1 101.75028346456692 33.46391338582677)" d="M 0 0h 79.964 v 29.925 h -79.964 v -29.925 Z "/>
                <g class="typst-group">
                    <g>
                        <g class="typst-group" transform="matrix(1 0 0 1 101.7502833543307 33.463913244094485)">
                            <g>
                                <g class="typst-text" transform="matrix(1 0 0 -1 3.000000110236222 10.26)">
                                    <use xlink:href="#g69597574CECAB230490B55D78EA71FA5" x="0" y="0" fill="#000000" fill-rule="nonzero"/>
                                    <use xlink:href="#g7E1B152A8FE386387AE99234EE6D4387" x="6.225999999999999" y="0" fill="#000000" fill-rule="nonzero"/>
                                    <use xlink:href="#gB46D3118346879547D9878D42B9C7462" x="9.933" y="0" fill="#000000" fill-rule="nonzero"/>
                                    <use xlink:href="#g8D79AE1146A4A9766C4C0833A9B83788" x="15.895" y="0" fill="#000000" fill-rule="nonzero"/>
                                    <use xlink:href="#g871F699C09C28D280052A6EF37E4F91D" x="25.014" y="0" fill="#000000" fill-rule="nonzero"/>
                                    <use xlink:href="#g5971BBF39DC283778FA60B0F8CBA56DA" x="30.932" y="0" fill="#000000" fill-rule="nonzero"/>
                                    <use xlink:href="#gECFF3E7F5C02C1375EDDA34E7180596F" x="36.85" y="0" fill="#000000" fill-rule="nonzero"/>
                                    <use xlink:href="#g8D79AE1146A4A9766C4C0833A9B83788" x="44.517" y="0" fill="#000000" fill-rule="nonzero"/>
                                    <use xlink:href="#gB46D3118346879547D9878D42B9C7462" x="53.636" y="0" fill="#000000" fill-rule="nonzero"/>
                                    <use xlink:href="#g3E0C2171C1B8258A9A66A9950CC38BE9" x="59.598000000000006" y="0" fill="#000000" fill-rule="nonzero"/>
                                    <use xlink:href="#g9A3EF6A028EF9DECCE8D76E8746E78DC" x="65.703" y="0" fill="#000000" fill-rule="nonzero"/>
                                    <use xlink:href="#g578BA9AB4ADF69A8BF04C6BFBDB78CD1" x="71.159" y="0" fill="#000000" fill-rule="nonzero"/>
                                </g>
                                <g class="typst-text" transform="matrix(1 0 0 -1 9.91900011023622 24.67)">
                                    <use xlink:href="#gECFF3E7F5C02C1375EDDA34E7180596F" x="0" y="0" fill="#000000" fill-rule="nonzero"/>
                                    <use xlink:href="#g871F699C09C28D280052A6EF37E4F91D" x="7.667" y="0" fill="#000000" fill-rule="nonzero"/>
                                    <use xlink:href="#gA4CE18833FBAE563854F3CEE97313D5B" x="13.618" y="0" fill="#000000" fill-rule="nonzero"/>
                                    <use xlink:href="#g7E1B152A8FE386387AE99234EE6D4387" x="19.162" y="0" fill="#000000" fill-rule="nonzero"/>
                                    <use xlink:href="#gA4CE18833FBAE563854F3CEE97313D5B" x="22.715" y="0" fill="#000000" fill-rule="nonzero"/>
                                    <use xlink:href="#g8D79AE1146A4A9766C4C0833A9B83788" x="28.259" y="0" fill="#000000" fill-rule="nonzero"/>
                                    <use xlink:href="#g9A3EF6A028EF9DECCE8D76E8746E78DC" x="37.378" y="0" fill="#000000" fill-rule="nonzero"/>
                                    <use xlink:href="#g5971BBF39DC283778FA60B0F8CBA56DA" x="42.724000000000004" y="0" fill="#000000" fill-rule="nonzero"/>
                                    <use xlink:href="#g9A3EF6A028EF9DECCE8D76E8746E78DC" x="46.288000000000004" y="0" fill="#000000" fill-rule="nonzero"/>
                                    <use xlink:href="#g7E1B152A8FE386387AE99234EE6D4387" x="51.74400000000001" y="0" fill="#000000" fill-rule="nonzero"/>
                                    <use xlink:href="#gE562EFCAC1A64298105D5CEEC983E15A" x="55.51700000000001" y="0" fill="#000000" fill-rule="nonzero"/>
                                </g>
                            </g>
                        </g>
                    </g>
                </g>
                <path class="typst-shape" fill="none" stroke="#000000" stroke-width="1" stroke-linecap="butt" stroke-linejoin="miter" stroke-miterlimit="4" transform="matrix(1 0 0 1 283.46456692913375 105.90859842519686)" d="M 0 0m 0.000000000000100706844 0 l -0.000000000000100706844 77.94608 "/>
                <path class="typst-shape" fill="#000000" fill-rule="nonzero" stroke="#000000" stroke-width="1" stroke-linecap="butt" stroke-linejoin="miter" stroke-miterlimit="4" transform="matrix(1 0 0 1 281.33858267716533 183.85468129133858)" d="M 0 0m 2.1259842 5.6692915 l -2.1259842 -5.6692915 h 4.2519684 l -2.1259842 5.6692915 Z "/>
                <path class="typst-shape" fill="none" transform="matrix(1 0 0 1 283.4645669291338 140.60478582677084)" d="M 0 0h 50.561 v 15.647 h -50.561 v -15.647 Z "/>
                <g class="typst-group">
                    <g>
                        <g class="typst-group" transform="matrix(1 0 0 1 283.4645668188976 140.6047858110228)">
                            <g>
                                <g class="typst-text" transform="matrix(1 0 0 -1 3 10.26)">
                                    <use xlink:href="#g9FD5FF29665F86969309E3EE2E998EB0" x="0" y="0" fill="#000000" fill-rule="nonzero"/>
                                    <use xlink:href="#g578BA9AB4ADF69A8BF04C6BFBDB78CD1" x="5.8740000000000006" y="0" fill="#000000" fill-rule="nonzero"/>
                                    <use xlink:href="#g1E30FAE216C53A1553BFB89ED36B4A15" x="8.679" y="0" fill="#000000" fill-rule="nonzero"/>
                                    <use xlink:href="#g7E1B152A8FE386387AE99234EE6D4387" x="14.663" y="0" fill="#000000" fill-rule="nonzero"/>
                                    <use xlink:href="#g8D79AE1146A4A9766C4C0833A9B83788" x="18.48" y="0" fill="#000000" fill-rule="nonzero"/>
                                    <use xlink:href="#gADFC7F98469797A6627DBB7A185FAAF1" x="29.799" y="0" fill="#000000" fill-rule="nonzero"/>
                                    <use xlink:href="#gB46D3118346879547D9878D42B9C7462" x="32.516" y="0" fill="#000000" fill-rule="nonzero"/>
                                    <use xlink:href="#gC85B001314EB7117B2210AAA618B3442" x="38.478" y="0" fill="#000000" fill-rule="nonzero"/>
                                </g>
                            </g>
                        </g>
                    </g>
                </g>
                <path class="typst-shape" fill="none" stroke="#000000" stroke-width="1" stroke-linecap="butt" stroke-linejoin="miter" stroke-miterlimit="4" transform="matrix(1 0 0 1 255.11811023622036 113.00189038799913)" d="M 0 0m 0 77.94608 l 0.000000000000100706844 -77.94608 "/>
                <path class="typst-shape" fill="#000000" fill-rule="nonzero" stroke="#000000" stroke-width="1" stroke-linecap="butt" stroke-linejoin="miter" stroke-miterlimit="4" transform="matrix(1 0 0 1 252.992125984252 107.33259911811024)" d="M 0 0m 2.1259842 0 l 2.1259842 5.6692915 h -4.2519684 l 2.1259842 -5.6692915 Z "/>
                <path class="typst-shape" fill="none" transform="matrix(1 0 0 1 177.3101102362204 133.36128582677085)" d="M 0 0h 77.808 v 30.134 h -77.808 v -30.134 Z "/>
                <g class="typst-group">
                    <g>
                        <g class="typst-group" transform="matrix(1 0 0 1 177.31011014173222 133.3612857637787)">
                            <g>
                                <g class="typst-text" transform="matrix(1 0 0 -1 3.0000000944881853 10.26)">
                                    <use xlink:href="#g7489899BD1ACB043812D5DF37C708698" x="0" y="0" fill="#000000" fill-rule="nonzero"/>
                                    <use xlink:href="#g9A3EF6A028EF9DECCE8D76E8746E78DC" x="5.169999999999999" y="0" fill="#000000" fill-rule="nonzero"/>
                                    <use xlink:href="#g6E06270ADA8513EFAFBD4C3EFC8CBF57" x="10.549" y="0" fill="#000000" fill-rule="nonzero"/>
                                    <use xlink:href="#g5971BBF39DC283778FA60B0F8CBA56DA" x="15.190999999999999" y="0" fill="#000000" fill-rule="nonzero"/>
                                    <use xlink:href="#g1E30FAE216C53A1553BFB89ED36B4A15" x="18.909" y="0" fill="#000000" fill-rule="nonzero"/>
                                    <use xlink:href="#g7E1B152A8FE386387AE99234EE6D4387" x="24.893" y="0" fill="#000000" fill-rule="nonzero"/>
                                    <use xlink:href="#g9A3EF6A028EF9DECCE8D76E8746E78DC" x="28.6" y="0" fill="#000000" fill-rule="nonzero"/>
                                    <use xlink:href="#g3E0C2171C1B8258A9A66A9950CC38BE9" x="34.056000000000004" y="0" fill="#000000" fill-rule="nonzero"/>
                                    <use xlink:href="#g8D79AE1146A4A9766C4C0833A9B83788" x="42.361000000000004" y="0" fill="#000000" fill-rule="nonzero"/>
                                    <use xlink:href="#gB46D3118346879547D9878D42B9C7462" x="51.480000000000004" y="0" fill="#000000" fill-rule="nonzero"/>
                                    <use xlink:href="#g3E0C2171C1B8258A9A66A9950CC38BE9" x="57.44200000000001" y="0" fill="#000000" fill-rule="nonzero"/>
                                    <use xlink:href="#g9A3EF6A028EF9DECCE8D76E8746E78DC" x="63.54700000000001" y="0" fill="#000000" fill-rule="nonzero"/>
                                    <use xlink:href="#g578BA9AB4ADF69A8BF04C6BFBDB78CD1" x="69.00300000000001" y="0" fill="#000000" fill-rule="nonzero"/>
                                </g>
                                <g class="typst-text" transform="matrix(1 0 0 -1 26.98550009448818 24.67)">
                                    <use xlink:href="#g49074C73CF9421B24BCEFA6FEB994C0B" x="0" y="0" fill="#000000" fill-rule="nonzero"/>
                                    <use xlink:href="#g5C6E8A88299FAB3BF47F973398E3FB66" x="3.333" y="0" fill="#000000" fill-rule="nonzero"/>
                                    <use xlink:href="#gE6EC29FFD967DB0EE20B28A7B23D11BE" x="6.072" y="0" fill="#000000" fill-rule="nonzero"/>
                                    <use xlink:href="#g578BA9AB4ADF69A8BF04C6BFBDB78CD1" x="11.616" y="0" fill="#000000" fill-rule="nonzero"/>
                                    <use xlink:href="#gC85B001314EB7117B2210AAA618B3442" x="14.421" y="0" fill="#000000" fill-rule="nonzero"/>
                                    <use xlink:href="#gF9F99EA4DC41818D464C13B8B259FB18" x="20.503999999999998" y="0" fill="#000000" fill-rule="nonzero"/>
                                </g>
                            </g>
                        </g>
                    </g>
                </g>
                <path class="typst-shape" fill="none" stroke="#000000" stroke-width="1" stroke-linecap="butt" stroke-linejoin="miter" stroke-miterlimit="4" transform="matrix(1 0 0 1 63.78620534862903 91.73537007874017)" d="M 0 0m 162.98544 0 h -162.98544 "/>
                <path class="typst-shape" fill="#000000" fill-rule="nonzero" stroke="#000000" stroke-width="1" stroke-linecap="butt" stroke-linejoin="miter" stroke-miterlimit="4" transform="matrix(1 0 0 1 58.11691407874016 89.60938582677166)" d="M 0 0m 0 2.1259842 l 5.6692915 -2.1259842 v 4.2519684 l -5.6692915 -2.1259842 Z "/>
                <path class="typst-shape" fill="none" transform="matrix(1 0 0 1 94.75978346456692 91.73537007874017)" d="M 0 0h 93.945 v 29.925 h -93.945 v -29.925 Z "/>
                <g class="typst-group">
                    <g>
                        <g class="typst-group" transform="matrix(1 0 0 1 94.75978337007874 91.73536993700789)">
                            <g>
                                <g class="typst-text" transform="matrix(1 0 0 -1 3.0000000944881924 10.26)">
                                    <use xlink:href="#g7489899BD1ACB043812D5DF37C708698" x="0" y="0" fill="#000000" fill-rule="nonzero"/>
                                    <use xlink:href="#g9A3EF6A028EF9DECCE8D76E8746E78DC" x="5.169999999999999" y="0" fill="#000000" fill-rule="nonzero"/>
                                    <use xlink:href="#g6E06270ADA8513EFAFBD4C3EFC8CBF57" x="10.549" y="0" fill="#000000" fill-rule="nonzero"/>
                                    <use xlink:href="#g5971BBF39DC283778FA60B0F8CBA56DA" x="15.190999999999999" y="0" fill="#000000" fill-rule="nonzero"/>
                                    <use xlink:href="#g1E30FAE216C53A1553BFB89ED36B4A15" x="18.909" y="0" fill="#000000" fill-rule="nonzero"/>
                                    <use xlink:href="#g7E1B152A8FE386387AE99234EE6D4387" x="24.893" y="0" fill="#000000" fill-rule="nonzero"/>
                                    <use xlink:href="#g9A3EF6A028EF9DECCE8D76E8746E78DC" x="28.6" y="0" fill="#000000" fill-rule="nonzero"/>
                                    <use xlink:href="#gECFF3E7F5C02C1375EDDA34E7180596F" x="36.25600000000001" y="0" fill="#000000" fill-rule="nonzero"/>
                                    <use xlink:href="#g8D79AE1146A4A9766C4C0833A9B83788" x="43.92300000000001" y="0" fill="#000000" fill-rule="nonzero"/>
                                    <use xlink:href="#g9A3EF6A028EF9DECCE8D76E8746E78DC" x="53.04200000000001" y="0" fill="#000000" fill-rule="nonzero"/>
                                    <use xlink:href="#g5971BBF39DC283778FA60B0F8CBA56DA" x="58.388000000000005" y="0" fill="#000000" fill-rule="nonzero"/>
                                    <use xlink:href="#gA4CE18833FBAE563854F3CEE97313D5B" x="61.87500000000001" y="0" fill="#000000" fill-rule="nonzero"/>
                                    <use xlink:href="#g3E0C2171C1B8258A9A66A9950CC38BE9" x="67.41900000000001" y="0" fill="#000000" fill-rule="nonzero"/>
                                    <use xlink:href="#gA4CE18833FBAE563854F3CEE97313D5B" x="73.52400000000002" y="0" fill="#000000" fill-rule="nonzero"/>
                                    <use xlink:href="#g5971BBF39DC283778FA60B0F8CBA56DA" x="78.91400000000002" y="0" fill="#000000" fill-rule="nonzero"/>
                                    <use xlink:href="#gA4CE18833FBAE563854F3CEE97313D5B" x="82.40100000000001" y="0" fill="#000000" fill-rule="nonzero"/>
                                </g>
                                <g class="typst-text" transform="matrix(1 0 0 -1 35.527000094488194 24.67)">
                                    <use xlink:href="#g49074C73CF9421B24BCEFA6FEB994C0B" x="0" y="0" fill="#000000" fill-rule="nonzero"/>
                                    <use xlink:href="#g5C6E8A88299FAB3BF47F973398E3FB66" x="3.333" y="0" fill="#000000" fill-rule="nonzero"/>
                                    <use xlink:href="#g4E5B1A43A10BE88E8AD52550ADC15F91" x="6.072" y="0" fill="#000000" fill-rule="nonzero"/>
                                    <use xlink:href="#g39742D12BDB7A4F3CA2C5AEFB0A985B9" x="10.747" y="0" fill="#000000" fill-rule="nonzero"/>
                                    <use xlink:href="#g871F699C09C28D280052A6EF37E4F91D" x="13.453" y="0" fill="#000000" fill-rule="nonzero"/>
                                    <use xlink:href="#gF9F99EA4DC41818D464C13B8B259FB18" x="19.558" y="0" fill="#000000" fill-rule="nonzero"/>
                                </g>
                            </g>
                        </g>
                    </g>
                </g>
                <path class="typst-shape" fill="none" transform="matrix(1 0 0 1 111.24328346456691 0)" d="M 0 0h 60.978 v 13.392 h -60.978 v -13.392 Z "/>
                <g class="typst-group">
                    <g>
                        <g class="typst-group" transform="matrix(1 0 0 1 111.24328337007874 0.0000000000000026855158516917172)">
                            <g>
                                <g class="typst-text" transform="matrix(1 0 0 -1 3 10.26)">
                                    <use xlink:href="#gB64C0948BF2C53B186971EFCE2C4EAAA" x="0" y="0" fill="#3ea34a" fill-rule="nonzero"/>
                                    <use xlink:href="#gB64C0948BF2C53B186971EFCE2C4EAAA" x="5.918" y="0" fill="#3ea34a" fill-rule="nonzero"/>
                                    <use xlink:href="#gDE3680A018B53E633F883EF648290305" x="12.034" y="0" fill="#3ea34a" fill-rule="nonzero"/>
                                    <use xlink:href="#g4D602E4BE2A5A056024F6B51AD8B7BC" x="21.648" y="0" fill="#3ea34a" fill-rule="nonzero"/>
                                    <use xlink:href="#g4A333C0F1BA3A66E8BB9E61BB451C721" x="27.302" y="0" fill="#3ea34a" fill-rule="nonzero"/>
                                    <use xlink:href="#g4799A9E122CAE867B8F21A4FAF68108D" x="33.55" y="0" fill="#3ea34a" fill-rule="nonzero"/>
                                    <use xlink:href="#g4799A9E122CAE867B8F21A4FAF68108D" x="39.842" y="0" fill="#3ea34a" fill-rule="nonzero"/>
                                    <use xlink:href="#gD3076533CC612FE214C5E09DDF550BD5" x="46.134" y="0" fill="#3ea34a" fill-rule="nonzero"/>
                                    <use xlink:href="#g958DCD2919A02F75D6AFB96B594451ED" x="51.832" y="0" fill="#3ea34a" fill-rule="nonzero"/>
                                </g>
                            </g>
                        </g>
                    </g>
                </g>
                <path class="typst-shape" fill="none" stroke="#aaaaaa" stroke-width="1" stroke-linecap="butt" stroke-linejoin="miter" stroke-miterlimit="4" transform="matrix(1 0 0 1 83.89682677165354 6.696000000000003)" d="M 0 0m 27.346457 0 h -27.346457 "/>
                <path class="typst-shape" fill="#000000" fill-rule="nonzero" stroke="#aaaaaa" stroke-width="1" stroke-linecap="butt" stroke-linejoin="miter" stroke-miterlimit="4" transform="matrix(1 0 0 1 83.39682670866142 0.31804724409448837)" d="M 0 0m 0 12.755905 v -12.755905 "/>
                <path class="typst-shape" fill="none" stroke="#aaaaaa" stroke-width="1" stroke-linecap="butt" stroke-linejoin="miter" stroke-miterlimit="4" transform="matrix(1 0 0 1 172.22128346456694 6.696000000000003)" d="M 0 0h 27.346457 "/>
                <path class="typst-shape" fill="#000000" fill-rule="nonzero" stroke="#aaaaaa" stroke-width="1" stroke-linecap="butt" stroke-linejoin="miter" stroke-miterlimit="4" transform="matrix(1 0 0 1 200.06774022047244 0.31804724409448837)" d="M 0 0v 12.755905 "/>
            </g>
        </g>
    </g>
    <defs id="glyph">
        <symbol id="gF12551EE4F7AD0C01D63DC0AF389BD66" overflow="visible">
            <path d="M 0 0m 3.729 -0.132 q -0.9020002 0 -1.6225002 0.4455 q -0.7204999 0.44550002 -1.1274999 1.2815001 q -0.40699995 0.83599997 -0.40699995 2.013 q 0 0.8689997 0.23649997 1.562 q 0.23649997 0.69299984 0.6765 1.1824999 q 0.43999994 0.48950005 1.0175 0.7424998 q 0.57749987 0.25300026 1.2705 0.25300026 q 0.6489999 0 1.1604998 -0.26399994 q 0.51150036 -0.26399994 0.81949997 -0.62700033 l -0.4949999 -0.5609999 q -0.28599977 0.3080001 -0.6545 0.4784999 q -0.36849976 0.17050028 -0.81949997 0.17050028 q -0.671 0 -1.1824999 -0.35750008 q -0.5115001 -0.35750008 -0.7975 -1.0120001 q -0.286 -0.6545 -0.286 -1.5455 q 0 -0.91299987 0.27499998 -1.573 q 0.2750001 -0.65999997 0.79200006 -1.0174999 q 0.51699996 -0.35750002 1.21 -0.35750002 q 0.50600004 0 0.9074998 0.1925 q 0.40150023 0.19250005 0.73150015 0.5665 l 0.48399973 -0.539 q -0.4289999 -0.495 -0.9569998 -0.7645 q -0.5279999 -0.26950002 -1.2319999 -0.26950002 Z "/>
        </symbol>
        <symbol id="g578BA9AB4ADF69A8BF04C6BFBDB78CD1" overflow="visible">
            <path d="M 0 0m 1.859 -0.099 q -0.34099996 0 -0.54999995 0.1375 q -0.20899999 0.1375 -0.30799997 0.40699998 q -0.09900004 0.2695 -0.09900004 0.6545 v 6.732 h 0.902 v -6.798 q 0 -0.22000003 0.07700002 -0.30250007 q 0.0769999 -0.08249998 0.18700004 -0.08249998 q 0.04399991 0 0.08249998 0.0055000186 q 0.038499832 0.005499959 0.10449982 0.016499996 l 0.13200021 -0.682 q -0.09899998 -0.033 -0.2255001 -0.060500003 q -0.12649989 -0.027499996 -0.3025 -0.027499996 Z "/>
        </symbol>
        <symbol id="g39742D12BDB7A4F3CA2C5AEFB0A985B9" overflow="visible">
            <path d="M 0 0m 0.902 0 v 5.346 h 0.902 v -5.346 h -0.902 Z m 0.45100003 6.446 q -0.26400006 0 -0.43450004 0.16499996 q -0.17049998 0.16499996 -0.17049998 0.4289999 q 0 0.26399994 0.17049998 0.4289999 q 0.17049998 0.16499996 0.43450004 0.16499996 q 0.26399994 0 0.43449998 -0.16499996 q 0.17049992 -0.16499996 0.17049992 -0.4289999 q 0 -0.26399994 -0.17049992 -0.4289999 q -0.17050004 -0.16499996 -0.43449998 -0.16499996 Z "/>
        </symbol>
        <symbol id="g9A3EF6A028EF9DECCE8D76E8746E78DC" overflow="visible">
            <path d="M 0 0m 3.069 -0.132 q -0.7149999 0 -1.3035 0.3355 q -0.5884999 0.33549997 -0.9295 0.957 q -0.34099996 0.6214999 -0.34099996 1.5125 q 0 0.86899996 0.352 1.496 q 0.352 0.62699986 0.90199995 0.96799994 q 0.5500001 0.34100008 1.166 0.34100008 q 0.6819999 0 1.1605 -0.3135004 q 0.4784999 -0.31349993 0.7205 -0.8744998 q 0.2420001 -0.5609999 0.2420001 -1.3199999 q 0 -0.14300013 -0.0055003166 -0.2750001 q -0.00549984 -0.13199997 -0.038499832 -0.26399994 h -3.85 v 0.7149999 h 3.08 q 0 0.77 -0.3355 1.1824999 q -0.3355 0.41250038 -0.9625001 0.41250038 q -0.36299992 0 -0.7149999 -0.20350027 q -0.352 -0.2034998 -0.5775 -0.6545 q -0.22549999 -0.45099998 -0.22549999 -1.1989999 q 0 -0.6819999 0.23650002 -1.144 q 0.23650002 -0.462 0.6435001 -0.6985 q 0.40699983 -0.23649997 0.8909998 -0.23649997 q 0.385 0 0.7205 0.109999955 q 0.33550024 0.110000014 0.61049986 0.297 l 0.3300004 -0.594 q -0.35200024 -0.24199998 -0.7865 -0.39599997 q -0.43450022 -0.154 -0.98450017 -0.154 Z "/>
        </symbol>
        <symbol id="g9886564FD86D4E8960192310D660FCCE" overflow="visible">
            <path d="M 0 0m 0.902 0 v 5.346 h 0.74799997 l 0.07700002 -0.77 h 0.032999992 q 0.385 0.38499975 0.8139999 0.64349985 q 0.42900014 0.2585001 0.9790001 0.2585001 q 0.8470001 0 1.2375002 -0.5335002 q 0.3904996 -0.5335002 0.3904996 -1.5565 v -3.388 h -0.90199995 v 3.267 q 0 0.75900006 -0.23649979 1.0944998 q -0.23650002 0.33550024 -0.77550006 0.33550024 q -0.40700006 0 -0.7314999 -0.20900011 q -0.32450008 -0.20900011 -0.7315 -0.61599994 v -3.872 h -0.902 Z "/>
        </symbol>
        <symbol id="g5971BBF39DC283778FA60B0F8CBA56DA" overflow="visible">
            <path d="M 0 0m 2.585 -0.099 q -0.847 0 -1.1880001 0.495 q -0.34099996 0.49499997 -0.34099996 1.287 v 2.926 h -0.792 v 0.6819997 l 0.836 0.055000305 l 0.110000014 1.7159996 h 0.75899994 v -1.7159996 h 1.452 v -0.737 h -1.452 v -2.9370003 q 0 -0.48399997 0.18150008 -0.75899994 q 0.18149996 -0.27499998 0.64349985 -0.27499998 q 0.14300013 0 0.29700017 0.027499974 q 0.1539998 0.027500033 0.30799985 0.104499996 l 0.19799995 -0.638 q -0.20899987 -0.099 -0.4729998 -0.16499999 q -0.26400018 -0.066 -0.53900003 -0.066 Z "/>
        </symbol>
        <symbol id="g519A4BF56E635986B5D2D283DDE5FB68" overflow="visible">
            <path d="M 0 0m 1.364 -1.958 q -0.27499998 0.671 -0.46199995 1.5565 q -0.18700004 0.88549995 -0.18700004 1.8205 q 0 1.353 0.30250007 2.574 q 0.3024999 1.2209997 0.8744999 2.244 q 0.572 1.0229998 1.3859999 1.8040004 l 0.49500012 -0.30800056 q -0.77 -0.77 -1.2925 -1.7874999 q -0.52250004 -1.0174999 -0.79199994 -2.1834998 q -0.26950002 -1.1660001 -0.26950002 -2.3650002 q 0 -0.84699994 0.12650001 -1.6775 q 0.12649989 -0.83049995 0.3685 -1.4575 l -0.5500001 -0.21999991 Z "/>
        </symbol>
        <symbol id="g7C43B2764BFF24EB370A881315D6BFB3" overflow="visible">
            <path d="M 0 0m 2.376 -0.132 q -0.58299994 0 -1.0229999 0.253 q -0.44000006 0.25300002 -0.6930001 0.7315 q -0.25299996 0.47849995 -0.25299996 1.1605 q 0 0.7479999 0.2475 1.3805001 q 0.2475 0.63249993 0.65999997 1.0999997 q 0.41250002 0.4675002 0.95150006 0.7260003 q 0.53900003 0.2585001 1.122 0.2585001 q 0.4949999 0 0.8414998 -0.18700027 q 0.3465004 -0.1869998 0.54450035 -0.4619999 l -0.47300005 -0.47300005 q -0.18700027 0.22000027 -0.41250014 0.32450008 q -0.2255001 0.10449982 -0.55550003 0.10449982 q -0.3959999 0 -0.7644999 -0.21999979 q -0.3685 -0.22000027 -0.6600001 -0.5940001 q -0.29149997 -0.37400007 -0.462 -0.8634999 q -0.17049992 -0.48950005 -0.17049992 -1.0395 q 0 -0.71500003 0.31349993 -1.1110001 q 0.31350005 -0.39600003 0.9405 -0.39600003 q 0.32999992 0 0.6545 0.14850003 q 0.32450008 0.14849997 0.5445001 0.3135 l 0.36299992 -0.48400003 q -0.286 -0.26399997 -0.7205 -0.46749997 q -0.43449998 -0.2035 -0.9955001 -0.2035 Z "/>
        </symbol>
        <symbol id="gAF180C279F90FFD31F6749945F6F3815" overflow="visible">
            <path d="M 0 0m 1.232 -0.099 q -0.374 0 -0.561 0.18149999 q -0.187 0.1815 -0.187 0.5115 q 0 0.088 0.016500026 0.20350003 q 0.016499996 0.11549997 0.04949999 0.24749994 l 1.3529999 6.7869997 h 0.847 l -1.364 -6.8199997 q -0.011000037 -0.08799994 -0.016499996 -0.14299995 q -0.005500078 -0.055000007 -0.005500078 -0.09900004 q 0 -0.176 0.16500008 -0.176 q 0.032999992 0 0.060499907 0.0055000186 q 0.027500033 0.0055000186 0.09350002 0.016499996 l 0.065999985 -0.616 q -0.110000014 -0.044 -0.2364999 -0.0715 q -0.12650001 -0.027499996 -0.28050005 -0.027499996 Z "/>
        </symbol>
        <symbol id="g80996BF9CFE0E20CE93DAF727EA17489" overflow="visible">
            <path d="M 0 0m 0.341 0 l 1.067 5.346 h 0.8469999 l -1.0669999 -5.346 h -0.847 Z m 1.7600001 6.457 q -0.20900011 0 -0.37400007 0.12650013 q -0.16499996 0.12650013 -0.16499996 0.36850023 q 0 0.26399994 0.19799995 0.45099974 q 0.19799995 0.18700027 0.44000006 0.18700027 q 0.22000003 0 0.3794999 -0.13199997 q 0.15950012 -0.13200045 0.15950012 -0.37400007 q 0 -0.2750001 -0.18700004 -0.4510002 q -0.18700004 -0.17600012 -0.45099998 -0.17600012 Z "/>
        </symbol>
        <symbol id="gC0DE93A68ED13753005BF62D5B95517D" overflow="visible">
            <path d="M 0 0m 2.541 -0.132 q -0.96799994 0 -1.5509999 0.583 q -0.583 0.58300006 -0.583 1.6500001 q 0 0.7589998 0.2475 1.375 q 0.2475 0.61599994 0.65999997 1.0669997 q 0.41250002 0.4510002 0.91850007 0.6930003 q 0.50600004 0.2420001 1.023 0.2420001 q 0.605 0 0.9734998 -0.25300026 q 0.36850023 -0.25299978 0.5335002 -0.69299984 q 0.16499996 -0.44000006 0.16499996 -0.99 q 0 -0.22000003 -0.027500153 -0.41250014 q -0.027499676 -0.19249988 -0.071499825 -0.35749984 q -0.04400015 -0.1650002 -0.08799982 -0.29700017 h -3.7070003 l 0.08799994 0.64900017 h 3.0249999 q 0.032999992 0.13199997 0.04400015 0.24199986 q 0.011000156 0.11000013 0.011000156 0.2420001 q 0 0.30799985 -0.09899998 0.5775001 q -0.09899998 0.26949978 -0.32450008 0.44000006 q -0.2255001 0.1704998 -0.6105001 0.1704998 q -0.319 0 -0.6600001 -0.17600012 q -0.34099984 -0.17600012 -0.6214999 -0.5114999 q -0.28050005 -0.3355 -0.45650005 -0.80850005 q -0.176 -0.47300005 -0.176 -1.0669999 q 0 -0.64900005 0.18700004 -1.0120001 q 0.18700004 -0.36299998 0.51699996 -0.51149994 q 0.33000016 -0.14850003 0.74800014 -0.14850003 q 0.352 0 0.6545 0.11550003 q 0.30249977 0.11549997 0.5554998 0.30249995 l 0.31900024 -0.528 q -0.31900024 -0.25300002 -0.74250007 -0.418 q -0.42350006 -0.16499999 -0.9515002 -0.16499999 Z "/>
        </symbol>
        <symbol id="g100C688F8CE7411AC6DF96A3DF6826C7" overflow="visible">
            <path d="M 0 0m 0.341 0 l 1.067 5.346 h 0.6930001 l -0.07700014 -0.80300045 h 0.04400015 q 0.4289999 0.3960004 0.8964999 0.66550016 q 0.46749997 0.26950026 0.9625001 0.26950026 q 0.68200016 0 0.9734998 -0.35750008 q 0.2915001 -0.35750008 0.2915001 -0.97350025 q 0 -0.1869998 -0.016499996 -0.35199976 q -0.016499996 -0.1650002 -0.071499825 -0.385 l -0.68200016 -3.41 h -0.83599997 l 0.65999985 3.3 q 0.04400015 0.22000003 0.065999985 0.352 q 0.022000313 0.13199997 0.022000313 0.2750001 q 0 0.40700006 -0.19250011 0.6159997 q -0.19250011 0.20900011 -0.59949994 0.20900011 q -0.319 0 -0.7095001 -0.23099995 q -0.39050007 -0.23099995 -0.8965 -0.737 l -0.75899994 -3.784 h -0.8360001 Z "/>
        </symbol>
        <symbol id="gD4AC00E808AA06B9F699765E9F1A4215" overflow="visible">
            <path d="M 0 0m 2.013 -0.099 q -0.671 0 -0.9625 0.3465 q -0.29150003 0.34649998 -0.29150003 0.86349994 q 0 0.143 0.016499996 0.28050005 q 0.016499996 0.13750005 0.03850001 0.29149997 l 0.627 2.981 h -0.792 l 0.143 0.62699986 l 0.825 0.055000305 l 0.4510001 1.7049999 h 0.704 l -0.33000016 -1.7049999 h 1.3530002 l -0.14300013 -0.68200016 h -1.375 l -0.627 -3.025 q -0.011000037 -0.09899998 -0.021999955 -0.18699992 q -0.011000037 -0.08800006 -0.011000037 -0.20899999 q 0 -0.319 0.14849997 -0.48400003 q 0.14850008 -0.16500002 0.5005001 -0.16500002 q 0.16499996 0 0.30799985 0.03850001 q 0.14300013 0.03850001 0.26400018 0.09350002 l 0.19799995 -0.561 q -0.17600012 -0.09899999 -0.44000006 -0.18149999 q -0.26399994 -0.082499996 -0.58299994 -0.082499996 Z "/>
        </symbol>
        <symbol id="g9AE33AD8993F8DA6AD4228A71E474377" overflow="visible">
            <path d="M 0 0m 0.77 -0.132 q -0.24199998 0 -0.37949997 0.1595 q -0.13750002 0.1595 -0.13750002 0.39049998 q 0 0.18700004 0.09900001 0.36300004 q 0.09900001 0.176 0.264 0.29149997 q 0.16500002 0.11549997 0.374 0.11549997 q 0.24199998 0 0.37399995 -0.1595 q 0.13200009 -0.15949994 0.13200009 -0.4015 q 0 -0.18699998 -0.09350002 -0.36299998 q -0.09350002 -0.176 -0.25849998 -0.286 q -0.16500008 -0.11 -0.37400007 -0.11 Z "/>
        </symbol>
        <symbol id="g2F4707146A463F9C8F904ED778D703F2" overflow="visible">
            <path d="M 0 0m -0.11 -2.2549999 l 1.518 7.601 h 0.6930001 l -0.065999985 -0.704 h 0.04399991 q 0.40700006 0.3409996 0.86899996 0.58849955 q 0.46200013 0.24750042 0.96799994 0.24750042 q 0.704 0 1.1220002 -0.5005002 q 0.41799974 -0.5005002 0.41799974 -1.4354999 q 0 -0.77 -0.23649979 -1.441 q -0.23650026 -0.6710001 -0.64900017 -1.1715001 q -0.4124999 -0.50049996 -0.92949986 -0.781 q -0.51699996 -0.2805 -1.0670002 -0.2805 q -0.41799998 0 -0.7479999 0.22 q -0.32999992 0.22 -0.53900003 0.55 h -0.021999955 l -0.19799995 -1.144 l -0.34100002 -1.7489998 h -0.836 Z m 2.6509998 2.827 q 0.39600015 0 0.76450014 0.23649997 q 0.3685 0.23649997 0.6545 0.6325 q 0.28599977 0.39600003 0.45650005 0.9075 q 0.1704998 0.5114999 0.1704998 1.0725 q 0 0.68200016 -0.26399994 1.0174999 q -0.26399994 0.33550024 -0.7149999 0.33550024 q -0.36300015 0 -0.8140001 -0.23100042 q -0.45099998 -0.23099995 -0.83599997 -0.6489997 l -0.5059999 -2.552 q 0.23099995 -0.407 0.50049996 -0.5885 q 0.2694999 -0.18149996 0.5884999 -0.18149996 Z "/>
        </symbol>
        <symbol id="g55FA615AB5D1D53E02932730DFDD2087" overflow="visible">
            <path d="M 0 0m -0.022 -2.299 q -0.176 0 -0.34649998 0.032999992 q -0.17049998 0.032999992 -0.3135 0.12100005 l 0.253 0.627 q 0.176 -0.07700002 0.41799998 -0.07700002 q 0.407 0 0.77 0.319 q 0.36299998 0.319 0.63799995 0.869 l 0.176 0.352 l -0.92399997 5.401 h 0.869 l 0.41799998 -2.992 q 0.054999948 -0.36300015 0.0990001 -0.77550006 q 0.04399991 -0.41250002 0.08799982 -0.7645 h 0.04400015 q 0.17599988 0.37399995 0.37399983 0.77549994 q 0.1980002 0.4015 0.385 0.76450014 l 1.5400002 2.992 h 0.8579998 l -3.08 -5.742 q -0.319 -0.61599994 -0.65999997 -1.0395 q -0.34099996 -0.42349994 -0.73149997 -0.6435 q -0.3905 -0.22000003 -0.87450004 -0.22000003 Z "/>
        </symbol>
        <symbol id="gB3598013039638CBFCC34220C53AFBC3" overflow="visible">
            <path d="M 0 0m 0.011 -1.958 l -0.495 0.319 q 0.77 0.75899994 1.2925 1.782 q 0.5225 1.023 0.78650004 2.1890001 q 0.26399994 1.1659999 0.26399994 2.365 q 0 0.8470001 -0.12099993 1.6774998 q -0.12100005 0.8305001 -0.36300004 1.4575 l 0.54999995 0.20900059 q 0.286 -0.64900017 0.46749997 -1.5345006 q 0.18149996 -0.88549995 0.18149996 -1.8314996 q 0 -1.3640003 -0.3025 -2.5795002 q -0.3024999 -1.2155 -0.8744999 -2.2385 q -0.57199997 -1.023 -1.3859999 -1.8149999 Z "/>
        </symbol>
        <symbol id="g9FD5FF29665F86969309E3EE2E998EB0" overflow="visible">
            <path d="M 0 0m 2.992 -0.132 q -0.7700002 0 -1.4080001 0.2915 q -0.638 0.2915 -1.122 0.7865 l 0.51699996 0.594 q 0.385 -0.40699995 0.91850007 -0.63799995 q 0.53349996 -0.231 1.1055 -0.231 q 0.7149999 0 1.1109998 0.32449996 q 0.3959999 0.32449996 0.3959999 0.8525001 q 0 0.37399983 -0.15949965 0.59399986 q -0.15950012 0.22000003 -0.42900014 0.37400007 q -0.26950002 0.15400004 -0.6105001 0.3080001 l -1.0339999 0.45099998 q -0.352 0.15400004 -0.6875 0.385 q -0.3355 0.23099995 -0.5554999 0.5885 q -0.22000003 0.35750008 -0.22000003 0.88549995 q 0 0.5500002 0.29149997 0.98449993 q 0.29149997 0.43450022 0.803 0.68200016 q 0.5115001 0.24749994 1.1715 0.24749994 q 0.6600001 0 1.21 -0.2420001 q 0.5500002 -0.2420001 0.9239998 -0.62699986 l -0.4949999 -0.59400034 q -0.34100008 0.2970004 -0.7479999 0.47850037 q -0.40700006 0.18149996 -0.89100003 0.18149996 q -0.605 0 -0.9735 -0.28600025 q -0.36849988 -0.28599977 -0.36849988 -0.77 q 0 -0.34100008 0.176 -0.5609999 q 0.17599988 -0.21999979 0.45650005 -0.36299992 q 0.28049994 -0.14300013 0.56649995 -0.2750001 l 1.023 -0.44000006 q 0.4289999 -0.18700004 0.76450014 -0.4289999 q 0.33549976 -0.2420001 0.5279999 -0.605 q 0.19250011 -0.36299992 0.19250011 -0.89100003 q 0 -0.5719999 -0.2915001 -1.0395 q -0.2915001 -0.46750003 -0.8470001 -0.7425 q -0.55550003 -0.275 -1.3144999 -0.275 Z "/>
        </symbol>
        <symbol id="g7E1B152A8FE386387AE99234EE6D4387" overflow="visible">
            <path d="M 0 0m 0.902 0 v 5.346 h 0.74799997 l 0.07700002 -0.9680004 h 0.032999992 q 0.26399994 0.50600004 0.6600001 0.803 q 0.3959999 0.2970004 0.8579998 0.2970004 q 0.17600012 0 0.3080001 -0.022000313 q 0.13199997 -0.021999836 0.26399994 -0.08799982 l -0.19799995 -0.77 q -0.12100005 0.032999992 -0.22549987 0.04949999 q -0.104500055 0.016499996 -0.26950002 0.016499996 q -0.34100008 0 -0.7095001 -0.2750001 q -0.3685 -0.2750001 -0.6435 -0.957 v -3.432 h -0.902 Z "/>
        </symbol>
        <symbol id="g86A48C98A4D6EC553F2F75980CEC2100" overflow="visible">
            <path d="M 0 0m 2.057 0 l -1.925 5.346 h 0.93500006 l 1.012 -3.0360003 q 0.12100005 -0.385 0.24749994 -0.7865 q 0.12650013 -0.4015 0.24749994 -0.7865 h 0.04400015 q 0.109999895 0.385 0.24199986 0.7865 q 0.13200021 0.4015 0.2420001 0.7865 l 1.0119998 3.0360003 h 0.8910003 l -1.8920002 -5.346 h -1.056 Z "/>
        </symbol>
        <symbol id="g49074C73CF9421B24BCEFA6FEB994C0B" overflow="visible">
            <path d="M 0 0m 2.354 -1.936 q -0.68200016 1.1110001 -1.0670002 2.3265 q -0.38499993 1.2154999 -0.38499993 2.6675 q 0 1.4519997 0.38499993 2.6729999 q 0.385 1.2210002 1.0670002 2.321 l 0.5609999 -0.26399994 q -0.638 -1.0450001 -0.95149994 -2.2605 q -0.31350005 -1.2155004 -0.31350005 -2.4695 q 0 -1.2540001 0.31350005 -2.4640002 q 0.31349993 -1.21 0.95149994 -2.2659998 l -0.5609999 -0.26400006 Z "/>
        </symbol>
        <symbol id="g74E81F83BD1E4EB8543ABADA1156E800" overflow="visible">
            <path d="M 0 0m 0.99 0 v 7.216 h 4.158 v -0.77 h -3.245 v -2.442 h 2.75 v -0.7700002 h -2.75 v -3.234 h -0.913 Z "/>
        </symbol>
        <symbol id="gA4CE18833FBAE563854F3CEE97313D5B" overflow="visible">
            <path d="M 0 0m 2.134 -0.132 q -0.44000006 0 -0.7975 0.1815 q -0.35750008 0.1815 -0.56650007 0.517 q -0.20899999 0.3355 -0.20899999 0.8195 q 0 0.90200007 0.79200006 1.364 q 0.79199994 0.4619999 2.508 0.6489999 q -0.011000156 0.33000016 -0.104500055 0.63800025 q -0.09350014 0.3079996 -0.3355 0.4949999 q -0.2420001 0.1869998 -0.671 0.1869998 q -0.4619999 0 -0.86899996 -0.1704998 q -0.40700006 -0.17050028 -0.7260001 -0.3794999 l -0.352 0.6159997 q 0.24199998 0.16499996 0.572 0.32450008 q 0.33000004 0.15950012 0.7149999 0.26399994 q 0.385 0.104500294 0.8140001 0.104500294 q 0.6489999 0 1.0614998 -0.26950026 q 0.4124999 -0.26949978 0.605 -0.76450014 q 0.19250011 -0.4949999 0.19250011 -1.1659999 v -3.2779999 h -0.74800014 l -0.0769999 0.638 h -0.032999992 q -0.385 -0.319 -0.82500005 -0.5445 q -0.44000006 -0.2255 -0.94599986 -0.2255 Z m 0.25300002 0.748 q 0.3959999 0 0.7424998 0.176 q 0.34650016 0.176 0.73150015 0.517 v 1.441 q -0.9020002 -0.11000013 -1.4245 -0.28049994 q -0.52250004 -0.17050004 -0.7535001 -0.42350006 q -0.23099995 -0.25300002 -0.23099995 -0.605 q 0 -0.43999994 0.27499998 -0.6325 q 0.2750001 -0.1925 0.6600001 -0.1925 Z "/>
        </symbol>
        <symbol id="gE562EFCAC1A64298105D5CEEC983E15A" overflow="visible">
            <path d="M 0 0m 2.299 -0.132 q -0.58300006 0 -1.1055 0.2035 q -0.52250004 0.2035 -0.8855001 0.5665 l 0.418 0.528 q 0.35199994 -0.286 0.73149997 -0.44 q 0.37950003 -0.15399998 0.87450004 -0.15399998 q 0.5279999 0 0.79200006 0.24749994 q 0.26399994 0.24750006 0.26399994 0.5885 q 0 0.27499998 -0.18149996 0.45650005 q -0.18149996 0.18149996 -0.45099998 0.30799985 q -0.26950002 0.12650013 -0.5775001 0.23650002 q -0.39600003 0.14300013 -0.75899994 0.3355 q -0.36300004 0.19250011 -0.5885 0.48399997 q -0.22549999 0.2915001 -0.22549999 0.73150015 q 0 0.64900017 0.48949993 1.0834999 q 0.48950005 0.43450022 1.3585001 0.43450022 q 0.4949999 0 0.924 -0.17050028 q 0.4289999 -0.1704998 0.73699975 -0.43449974 l -0.41799974 -0.5170002 q -0.286 0.19799995 -0.5830002 0.3080001 q -0.29699993 0.11000013 -0.65999985 0.11000013 q -0.50600004 0 -0.74250007 -0.23100042 q -0.23650002 -0.23099995 -0.23650002 -0.53899956 q 0 -0.2420001 0.143 -0.40150023 q 0.143 -0.15949988 0.4015001 -0.28049994 q 0.25849986 -0.12100005 0.5884998 -0.23099995 q 0.41800022 -0.15400004 0.79750013 -0.34650016 q 0.3794999 -0.19249988 0.6160002 -0.4949999 q 0.23649979 -0.3025 0.23649979 -0.7865001 q 0 -0.43999994 -0.2255001 -0.79749995 q -0.22549987 -0.3575 -0.65999985 -0.5775 q -0.43449998 -0.22 -1.0725 -0.22 Z "/>
        </symbol>
        <symbol id="g9BC291DFA7C819CA74FDFA48B6BC4E53" overflow="visible">
            <path d="M 0 0m 0.902 0 v 7.832 h 0.902 v -5.291 h 0.021999955 l 2.266 2.8050003 h 1.0120001 l -1.7820001 -2.1560001 l 2.0240002 -3.19 h -0.99000025 l -1.562 2.574 l -0.9899999 -1.1659999 v -1.408 h -0.902 Z "/>
        </symbol>
        <symbol id="gF9F99EA4DC41818D464C13B8B259FB18" overflow="visible">
            <path d="M 0 0m 0.979 -1.936 l -0.561 0.26400006 q 0.638 1.056 0.95150006 2.2659998 q 0.31349993 1.21 0.31349993 2.4640002 q 0 1.2539997 -0.31349993 2.4695 q -0.31350005 1.2154999 -0.95150006 2.2605 l 0.561 0.26399994 q 0.69299996 -1.0999999 1.0725001 -2.321 q 0.3794999 -1.2210002 0.3794999 -2.6729999 q 0 -1.4520001 -0.3794999 -2.6675 q -0.37950015 -1.2155 -1.0725001 -2.3265 Z "/>
        </symbol>
        <symbol id="g3FB68268F2561988D3206298C043A70A" overflow="visible">
            <path d="M 0 0m 1.793 -0.132 q -0.352 0 -0.704 0.121 q -0.352 0.121 -0.6435 0.3465 q -0.29149997 0.22549999 -0.46749997 0.5335 l 0.462 0.38499993 q 0.25300002 -0.34099996 0.62149996 -0.539 q 0.3685 -0.19799995 0.7975 -0.19799995 q 0.3080001 0 0.56649995 0.11549997 q 0.2585001 0.11550003 0.41250014 0.319 q 0.15400004 0.20349997 0.15400004 0.4565 q 0 0.19799995 -0.09350014 0.34650004 q -0.0934999 0.14849997 -0.32450008 0.31350005 q -0.23099995 0.16499996 -0.6489999 0.3959999 q -0.495 0.286 -0.814 0.63249993 q -0.31899995 0.34650016 -0.31899995 0.80850005 q 0 0.46200013 0.24200004 0.8195002 q 0.24199998 0.3574996 0.6435 0.55549955 q 0.4015 0.19800043 0.88549995 0.19800043 q 0.50600004 0 0.9130001 -0.19250011 q 0.40699983 -0.19250011 0.70399976 -0.5444999 l -0.45099974 -0.4510002 q -0.22000003 0.2420001 -0.5170002 0.38500023 q -0.29699993 0.14299965 -0.65999985 0.14299965 q -0.41799998 0 -0.6875 -0.24199963 q -0.26950002 -0.2420001 -0.26950002 -0.572 q 0 -0.3080001 0.26950002 -0.5225003 q 0.26950002 -0.21449995 0.67649984 -0.4454999 q 0.4510002 -0.2420001 0.7260001 -0.46749997 q 0.2750001 -0.2255001 0.4015 -0.47850013 q 0.12650013 -0.2529999 0.12650013 -0.5719999 q 0 -0.495 -0.2585001 -0.869 q -0.2585001 -0.37399998 -0.7149999 -0.5775 q -0.45650005 -0.2035 -1.0285001 -0.2035 Z "/>
        </symbol>
        <symbol id="gAE7280CADCFAF0DB0FA3A274A28AA2D" overflow="visible">
            <path d="M 0 0m 0.341 0 l 1.067 5.346 h 0.6930001 l -0.12100005 -1.0230002 h 0.04399991 q 0.319 0.4840002 0.737 0.81949997 q 0.41799998 0.33550024 0.9130001 0.33550024 q 0.14299989 0 0.27499986 -0.022000313 q 0.13199997 -0.021999836 0.23099995 -0.076999664 l -0.29699993 -0.737 q -0.0769999 0.043999672 -0.19249988 0.060499668 q -0.11549997 0.016499996 -0.26950002 0.016499996 q -0.3959999 0 -0.8140001 -0.34100008 q -0.41799998 -0.3409996 -0.7589998 -1.0009997 l -0.671 -3.377 h -0.8360001 Z "/>
        </symbol>
        <symbol id="g2B079F89617C019AABE91FA40E5F7181" overflow="visible">
            <path d="M 0 0m 1.43 0 l -0.78099996 5.346 h 0.836 l 0.39600003 -3.0910003 q 0.04399991 -0.38499987 0.0769999 -0.7974999 q 0.032999992 -0.41250002 0.07700014 -0.7975 h 0.04399991 q 0.19799995 0.39600003 0.3959999 0.7975 q 0.1980002 0.4015 0.39600015 0.7974999 l 1.5729997 3.0910003 h 0.8470001 l -2.849 -5.346 h -1.012 Z "/>
        </symbol>
        <symbol id="gFB33E49685E6756572402E8EE9705808" overflow="visible">
            <path d="M 0 0m 0.99 0 v 7.216 h 1.155 l 1.3640001 -3.861 q 0.13199997 -0.36299992 0.24749994 -0.7260001 q 0.11549997 -0.36299992 0.23650002 -0.77 h 0.04400015 q 0.12099981 0.40700006 0.23099995 0.77 q 0.10999966 0.36300015 0.23099995 0.7260001 l 1.3639998 3.861 h 1.144 v -7.216 h -0.8579998 v 3.971 q 0 0.319 0.021999836 0.7149999 q 0.021999836 0.3959999 0.04949999 0.7865 q 0.027500153 0.39050007 0.060500145 0.7095003 h -0.04400015 l -0.5609999 -1.7380004 l -1.3530002 -3.7289999 h -0.671 l -1.3529999 3.7289999 l -0.561 1.7380004 h -0.04400003 q 0.032999992 -0.31900024 0.060500026 -0.7095003 q 0.027499914 -0.39050007 0.04949999 -0.7865 q 0.021999955 -0.3959999 0.021999955 -0.7149999 v -3.971 h -0.83599997 Z "/>
        </symbol>
        <symbol id="g41315F682C0018EA137AB43B97CD2AD7" overflow="visible">
            <path d="M 0 0m 2.266 0 l -2.266 7.216 h 0.979 l 1.111 -3.894 q 0.13199997 -0.44000006 0.2420001 -0.81949997 q 0.109999895 -0.37950015 0.22000003 -0.75900006 q 0.109999895 -0.37950003 0.24199986 -0.8085 h 0.04400015 q 0.12099981 0.42899996 0.23099995 0.8085 q 0.109999895 0.3794999 0.22000003 0.75900006 q 0.109999895 0.3794999 0.24199986 0.81949997 l 1.1990001 3.894 h 0.93499994 l -2.332 -7.216 h -1.0669999 Z "/>
        </symbol>
        <symbol id="g265F13605994D09157FD0886362E3B31" overflow="visible">
            <path d="M 0 0m 0.451 2.409 v 0.6930001 h 2.53 v -0.6930001 h -2.53 Z "/>
        </symbol>
        <symbol id="g70F41F0E1DEAADCA368ACEA25E0B7EE2" overflow="visible">
            <path d="M 0 0m 0.033 0 l 2.442 7.216 h 1.0340002 l 2.4419997 -7.216 h -0.96799994 l -1.2649999 4.037 q -0.19799995 0.605 -0.37400007 1.2044997 q -0.17599988 0.5995002 -0.35199976 1.2265 h -0.04400015 q -0.16499996 -0.62699986 -0.34100008 -1.2265 q -0.17599988 -0.5994997 -0.37399983 -1.2044997 l -1.276 -4.037 h -0.924 Z m 1.276 2.2 v 0.72599983 h 3.3330002 v -0.72599983 h -3.3330002 Z "/>
        </symbol>
        <symbol id="g3E0C2171C1B8258A9A66A9950CC38BE9" overflow="visible">
            <path d="M 0 0m 2.728 -0.132 q -1.012 0 -1.6114999 0.7315 q -0.5995 0.73149997 -0.5995 2.0625 q 0 0.86899996 0.32449996 1.5014999 q 0.32450002 0.6325002 0.8525 0.97350025 q 0.5279999 0.34100008 1.144 0.34100008 q 0.4729998 0 0.8084998 -0.15950012 q 0.3355 -0.15950012 0.68750024 -0.45650005 l -0.04400015 0.9130001 v 2.0569997 h 0.9130001 v -7.832 h -0.74800014 l -0.07700014 0.627 h -0.032999992 q -0.3079996 -0.30799997 -0.72599983 -0.53349996 q -0.41799998 -0.2255 -0.89100003 -0.2255 Z m 0.19799995 0.75899994 q 0.37400007 0 0.704 0.18700004 q 0.33000016 0.18700004 0.6600001 0.54999995 v 2.7940001 q -0.32999992 0.3080001 -0.6489999 0.43450022 q -0.319 0.12649965 -0.6489999 0.12649965 q -0.42900014 0 -0.77550006 -0.2585001 q -0.34650004 -0.25849962 -0.55550003 -0.7149997 q -0.20899999 -0.45650005 -0.20899999 -1.0725 q 0 -0.95700014 0.385 -1.5015001 q 0.38499987 -0.5445 1.0889999 -0.5445 Z "/>
        </symbol>
        <symbol id="g871F699C09C28D280052A6EF37E4F91D" overflow="visible">
            <path d="M 0 0m 0.902 -2.2549999 v 7.601 h 0.74799997 l 0.07700002 -0.6160002 h 0.032999992 q 0.36299992 0.3080001 0.803 0.5279999 q 0.44000006 0.22000027 0.90199995 0.22000027 q 0.6819999 0 1.155 -0.33550024 q 0.47300005 -0.33549976 0.71500015 -0.9460001 q 0.2420001 -0.61049986 0.2420001 -1.4464998 q 0 -0.90199995 -0.32450008 -1.551 q -0.32450008 -0.649 -0.85249996 -0.99 q -0.5280001 -0.341 -1.1330001 -0.341 q -0.36299992 0 -0.737 0.16499999 q -0.37400007 0.16499999 -0.748 0.451 l 0.022000074 -0.935 v -1.8039999 h -0.902 Z m 2.211 2.882 q 0.44000006 0 0.7865 0.25300002 q 0.34649992 0.25300002 0.5444999 0.7315 q 0.19800043 0.4784999 0.19800043 1.1385 q 0 0.58299994 -0.14300013 1.0285001 q -0.14300013 0.4454999 -0.4510002 0.69299984 q -0.30799985 0.24749994 -0.8139999 0.24749994 q -0.32999992 0 -0.6819999 -0.18149996 q -0.352 -0.18149996 -0.748 -0.5444999 v -2.805 q 0.37399995 -0.30799997 0.70949996 -0.43449998 q 0.3355 -0.12650001 0.59949994 -0.12650001 Z "/>
        </symbol>
        <symbol id="g69597574CECAB230490B55D78EA71FA5" overflow="visible">
            <path d="M 0 0m 0.99 0 v 7.216 h 2.057 q 0.8140001 0 1.4190001 -0.20350027 q 0.605 -0.2034998 0.9460001 -0.6654997 q 0.3409996 -0.46200037 0.3409996 -1.2540002 q 0 -0.7589998 -0.33549976 -1.2484999 q -0.33550024 -0.48950005 -0.93499994 -0.737 q -0.5995002 -0.24750018 -1.3915 -0.24750018 h -1.1880001 v -2.86 h -0.913 Z m 0.913 3.608 h 1.078 q 0.9460001 0 1.4025002 0.36299992 q 0.45650005 0.36300015 0.45650005 1.122 q 0 0.78100014 -0.47850037 1.0834999 q -0.4784999 0.30250025 -1.4244998 0.30250025 h -1.034 v -2.871 Z "/>
        </symbol>
        <symbol id="gB46D3118346879547D9878D42B9C7462" overflow="visible">
            <path d="M 0 0m 2.981 -0.132 q -0.6489999 0 -1.2155 0.32999998 q -0.56649995 0.32999998 -0.9129999 0.95699996 q -0.34650004 0.627 -0.34650004 1.507 q 0 0.90199995 0.34650004 1.529 q 0.34649998 0.62699986 0.9129999 0.9569998 q 0.56650007 0.3300004 1.2155 0.3300004 q 0.6600001 0 1.2210002 -0.3300004 q 0.5609999 -0.32999992 0.9074998 -0.9569998 q 0.34649992 -0.6270001 0.34649992 -1.529 q 0 -0.88 -0.34649992 -1.507 q -0.34649992 -0.627 -0.9074998 -0.95699996 q -0.5610001 -0.32999998 -1.2210002 -0.32999998 Z m 0 0.748 q 0.46200013 0 0.8140001 0.25849998 q 0.35199976 0.25850004 0.53900003 0.72050005 q 0.1869998 0.4619999 0.1869998 1.0669999 q 0 0.61599994 -0.1869998 1.0835001 q -0.18700027 0.46749973 -0.53900003 0.72599983 q -0.352 0.2585001 -0.8140001 0.2585001 q -0.4619999 0 -0.80850005 -0.2585001 q -0.34649992 -0.2585001 -0.5389999 -0.72599983 q -0.1925 -0.4675002 -0.1925 -1.0835001 q 0 -0.605 0.1925 -1.0669999 q 0.1925 -0.462 0.5389999 -0.72050005 q 0.34650016 -0.25849998 0.80850005 -0.25849998 Z "/>
        </symbol>
        <symbol id="g8D79AE1146A4A9766C4C0833A9B83788" overflow="visible">
            <path d="M 0 0m 0.902 0 v 5.346 h 0.74799997 l 0.07700002 -0.77 h 0.032999992 q 0.352 0.3739996 0.7644999 0.63799953 q 0.41250014 0.26400042 0.8965001 0.26400042 q 0.6160002 0 0.9625001 -0.2750001 q 0.34649992 -0.2750001 0.5114999 -0.74800014 q 0.41800022 0.4619999 0.8470001 0.7424998 q 0.4289999 0.2805004 0.91299963 0.2805004 q 0.83600044 0 1.2320004 -0.5335002 q 0.3959999 -0.5335002 0.3959999 -1.5565 v -3.388 h -0.90199995 v 3.267 q 0 0.75900006 -0.2420001 1.0944998 q -0.2420001 0.33550024 -0.74800014 0.33550024 q -0.31899977 0 -0.64349985 -0.20350027 q -0.32450008 -0.2034998 -0.69850016 -0.6214998 v -3.872 h -0.90199995 v 3.267 q 0 0.75900006 -0.24199986 1.0944998 q -0.2420001 0.33550024 -0.75900006 0.33550024 q -0.605 0 -1.3419999 -0.82500005 v -3.872 h -0.902 Z "/>
        </symbol>
        <symbol id="gECFF3E7F5C02C1375EDDA34E7180596F" overflow="visible">
            <path d="M 0 0m 2.376 1.144 v 2.145 h -2.0019999 v 0.6819999 h 2.0019999 v 2.1450002 h 0.71500015 v -2.1450002 h 2.0019999 v -0.6819999 h -2.0019999 v -2.145 h -0.71500015 Z "/>
        </symbol>
        <symbol id="g1E30FAE216C53A1553BFB89ED36B4A15" overflow="visible">
            <path d="M 0 0m 2.464 -0.132 q -0.847 0 -1.2375 0.53349996 q -0.39050007 0.5335 -0.39050007 1.5565 v 3.3880002 h 0.90200007 v -3.2670002 q 0 -0.748 0.2364999 -1.0835 q 0.23650002 -0.3355 0.76450014 -0.3355 q 0.40699983 0 0.7314999 0.21450001 q 0.32450008 0.21450001 0.70949984 0.6765 v 3.795 h 0.90199995 v -5.346 h -0.74799967 l -0.07700014 0.83599997 h -0.032999992 q -0.36299992 -0.43999997 -0.7865 -0.704 q -0.42350006 -0.264 -0.9735 -0.264 Z "/>
        </symbol>
        <symbol id="gADFC7F98469797A6627DBB7A185FAAF1" overflow="visible">
            <path d="M 0 0m 0.352 -2.387 q -0.231 0 -0.44 0.04400015 q -0.20899999 0.04399991 -0.352 0.109999895 l 0.187 0.68200004 q 0.09899999 -0.032999992 0.2365 -0.065999985 q 0.1375 -0.032999992 0.2695 -0.032999992 q 0.396 0 0.528 0.28049994 q 0.13199997 0.28050005 0.13199997 0.77550006 v 5.94 h 0.90199995 v -5.951 q 0 -0.53900003 -0.14849997 -0.9405 q -0.14849997 -0.4015 -0.46749997 -0.6215 q -0.319 -0.22000003 -0.847 -0.22000003 Z m 1.001 8.833 q -0.26400006 0 -0.43450004 0.16499996 q -0.17049998 0.16499996 -0.17049998 0.4289999 q 0 0.26399994 0.17049998 0.4289999 q 0.17049998 0.16499996 0.43450004 0.16499996 q 0.26399994 0 0.43449998 -0.16499996 q 0.17049992 -0.16499996 0.17049992 -0.4289999 q 0 -0.26399994 -0.17049992 -0.4289999 q -0.17050004 -0.16499996 -0.43449998 -0.16499996 Z "/>
        </symbol>
        <symbol id="gC85B001314EB7117B2210AAA618B3442" overflow="visible">
            <path d="M 0 0m 3.267 -0.132 q -0.37400007 0 -0.77 0.1815 q -0.3959999 0.1815 -0.75899994 0.5005 h -0.032999992 l -0.07700002 -0.55 h -0.726 v 7.832 h 0.902 v -2.1339998 l -0.022000074 -0.96799994 q 0.36300004 0.31899977 0.7975 0.5334997 q 0.43449998 0.21450043 0.87450004 0.21450043 q 0.69299984 0 1.1659999 -0.33550024 q 0.47300005 -0.33549976 0.71500015 -0.9460001 q 0.2420001 -0.61049986 0.2420001 -1.4354999 q 0 -0.91299987 -0.32450008 -1.5619999 q -0.32450008 -0.649 -0.85249996 -0.99 q -0.5280001 -0.341 -1.1330001 -0.341 Z m -0.15400004 0.75899994 q 0.44000006 0 0.7865 0.25300002 q 0.34649992 0.25300002 0.5444999 0.7315 q 0.19800043 0.4784999 0.19800043 1.1385 q 0 0.58299994 -0.14300013 1.0285001 q -0.14300013 0.4454999 -0.4510002 0.69299984 q -0.30799985 0.24749994 -0.8139999 0.24749994 q -0.32999992 0 -0.6875 -0.18149996 q -0.35750008 -0.18149996 -0.74249995 -0.5444999 v -2.805 q 0.35199988 -0.30799997 0.69850004 -0.43449998 q 0.34649992 -0.12650001 0.61049986 -0.12650001 Z "/>
        </symbol>
        <symbol id="g7489899BD1ACB043812D5DF37C708698" overflow="visible">
            <path d="M 0 0m 2.486 0 v 6.435 h -2.178 v 0.78100014 h 5.2799997 v -0.78100014 h -2.1779997 v -6.435 h -0.924 Z "/>
        </symbol>
        <symbol id="g6E06270ADA8513EFAFBD4C3EFC8CBF57" overflow="visible">
            <path d="M 0 0m 0.154 0 l 1.749 2.794 l -1.617 2.5520003 h 0.979 l 0.71500003 -1.177 q 0.12100005 -0.20900011 0.25849986 -0.43450022 q 0.13750005 -0.22549987 0.26950002 -0.45650005 h 0.04400015 q 0.12100005 0.23100019 0.24199986 0.45650005 q 0.12100005 0.2255001 0.2420001 0.43450022 l 0.6489999 1.177 h 0.9460001 l -1.6170001 -2.6510003 l 1.7379999 -2.695 h -0.97899985 l -0.7809999 1.243 q -0.14300013 0.24199998 -0.2915001 0.48399997 q -0.14849997 0.24199998 -0.2915001 0.47300005 h -0.04399991 q -0.14300013 -0.23100007 -0.2750001 -0.4675001 q -0.13199997 -0.2364999 -0.26399994 -0.48949993 l -0.72599995 -1.243 h -0.94600004 Z "/>
        </symbol>
        <symbol id="g5C6E8A88299FAB3BF47F973398E3FB66" overflow="visible">
            <path d="M 0 0m 1.375 -0.132 q -0.26400006 0 -0.462 0.1925 q -0.19800001 0.1925 -0.19800001 0.48950002 q 0 0.319 0.19800001 0.51149994 q 0.19799995 0.1925 0.462 0.1925 q 0.27499998 0 0.462 -0.1925 q 0.18699992 -0.19249994 0.18699992 -0.51149994 q 0 -0.29700002 -0.18699992 -0.48950002 q -0.18700004 -0.1925 -0.462 -0.1925 Z "/>
        </symbol>
        <symbol id="gE6EC29FFD967DB0EE20B28A7B23D11BE" overflow="visible">
            <path d="M 0 0m 2.706 -2.464 q -0.64900017 0 -1.1495001 0.17050004 q -0.50049996 0.17050004 -0.78099996 0.48949993 q -0.2805 0.319 -0.2805 0.781 q 0 0.34100002 0.20899999 0.6545 q 0.20899999 0.3135 0.572 0.55550003 v 0.044 q -0.19800007 0.132 -0.3355 0.34649998 q -0.13750005 0.21450001 -0.13750005 0.52250004 q 0 0.34099996 0.1925 0.594 q 0.1925 0.25300002 0.39050007 0.3959999 v 0.04400015 q -0.25300002 0.22000003 -0.47300005 0.59399986 q -0.21999997 0.37400007 -0.21999997 0.8470001 q 0 0.58299994 0.2805 1.0119998 q 0.28049994 0.4289999 0.737 0.65999985 q 0.45650005 0.23100042 0.9955001 0.23100042 q 0.21999979 0 0.41799998 -0.03850031 q 0.19799995 -0.038499832 0.34099984 -0.09349966 h 1.859 v -0.6930003 h -1.1110001 v -0.043999672 q 0.19799995 -0.17600012 0.32450008 -0.44000006 q 0.12650013 -0.26400018 0.12650013 -0.6270001 q 0 -0.572 -0.26399994 -0.98450017 q -0.26399994 -0.4124999 -0.704 -0.6379999 q -0.44000006 -0.22549999 -0.99 -0.22549999 q -0.1980002 0 -0.40700006 0.04949999 q -0.20900011 0.04949999 -0.39600003 0.13750005 q -0.13199997 -0.12100005 -0.23650002 -0.26400006 q -0.104499936 -0.143 -0.104499936 -0.37399995 q 0 -0.25300002 0.20349991 -0.41800004 q 0.20350003 -0.16500002 0.74249995 -0.16500002 h 1.0340002 q 0.9349997 0 1.4024999 -0.30249998 q 0.4675002 -0.30249998 0.4675002 -0.9735 q 0 -0.49499995 -0.3300004 -0.91300005 q -0.32999992 -0.41799998 -0.9404998 -0.67649984 q -0.6105001 -0.2585001 -1.4354999 -0.2585001 Z m 0 4.763 q 0.30799985 0 0.56649995 0.15949988 q 0.25849986 0.15950012 0.4124999 0.44550014 q 0.15400004 0.286 0.15400004 0.671 q 0 0.5940001 -0.32999992 0.9184997 q -0.33000016 0.32450008 -0.803 0.32450008 q -0.47300005 0 -0.8030001 -0.32450008 q -0.33000004 -0.3244996 -0.33000004 -0.9184997 q 0 -0.385 0.15400004 -0.671 q 0.15400004 -0.286 0.4124999 -0.44550014 q 0.2585001 -0.15949988 0.5665002 -0.15949988 Z m 0.13199997 -4.136 q 0.5059998 0 0.88549995 0.15400004 q 0.37950015 0.15399992 0.5940001 0.40699995 q 0.21449995 0.25300002 0.21449995 0.528 q 0 0.374 -0.28049994 0.517 q -0.28050017 0.143 -0.79750013 0.143 h -0.924 q -0.15400004 0 -0.3355 0.022 q -0.18149996 0.022 -0.35749996 0.066 q -0.29700005 -0.20899999 -0.42350006 -0.44 q -0.12650001 -0.231 -0.12650001 -0.462 q 0 -0.42899996 0.41250002 -0.682 q 0.41250002 -0.25300002 1.1385001 -0.25300002 Z "/>
        </symbol>
        <symbol id="g4E5B1A43A10BE88E8AD52550ADC15F91" overflow="visible">
            <path d="M 0 0m 0.341 0 v 0.484 l 2.816 4.125 h -2.5080001 v 0.737 h 3.6520002 v -0.4840002 l -2.816 -4.125 h 2.9039998 v -0.737 h -4.048 Z "/>
        </symbol>
        <symbol id="gB64C0948BF2C53B186971EFCE2C4EAAA" overflow="visible">
            <path d="M 0 0m 3.036 -0.132 q -0.7149999 0 -1.408 0.25849998 q -0.693 0.25849998 -1.243 0.7865 l 0.85800004 1.056 q 0.385 -0.33000004 0.87450004 -0.51699996 q 0.4894998 -0.18700004 0.96249986 -0.18700004 q 0.50600004 0 0.7535 0.18700004 q 0.24749994 0.18699992 0.24749994 0.5059999 q 0 0.23099995 -0.12649989 0.3685 q -0.12649989 0.13750005 -0.35750008 0.24749994 q -0.23099995 0.11000013 -0.54999995 0.2420001 l -0.93499994 0.385 q -0.36300004 0.16499996 -0.69850004 0.42350006 q -0.3355 0.25849986 -0.539 0.6379998 q -0.20349997 0.3795004 -0.20349997 0.90750027 q 0 0.59399986 0.32449996 1.0724998 q 0.32449996 0.47850037 0.90200007 0.77 q 0.57749987 0.2915001 1.3255 0.2915001 q 0.6489999 0 1.2539997 -0.23099995 q 0.605 -0.23099995 1.0560002 -0.671 l -0.8579998 -1.0450001 q -0.35200024 0.26399994 -0.72050023 0.40700006 q -0.3685 0.14300013 -0.7314999 0.14300013 q -0.41799998 0 -0.66550016 -0.17050028 q -0.24749994 -0.1704998 -0.24749994 -0.4784999 q 0 -0.20900011 0.14300013 -0.35750008 q 0.14299989 -0.14849997 0.3959999 -0.25299978 q 0.25300002 -0.104500294 0.54999995 -0.23650026 l 0.924 -0.3739996 q 0.44000006 -0.17600012 0.7535 -0.4400003 q 0.31349993 -0.26399994 0.48950005 -0.63249993 q 0.17600012 -0.3685 0.17600012 -0.87450004 q 0 -0.59399986 -0.31900024 -1.0999999 q -0.31899977 -0.50600004 -0.9239998 -0.814 q -0.605 -0.308 -1.463 -0.308 Z "/>
        </symbol>
        <symbol id="gDE3680A018B53E633F883EF648290305" overflow="visible">
            <path d="M 0 0m 0.847 0 v 7.172 h 1.617 v -2.7610002 h 2.4750001 v 2.7610002 h 1.6279998 v -7.172 h -1.6279998 v 2.992 h -2.4750001 v -2.992 h -1.617 Z "/>
        </symbol>
        <symbol id="g4D602E4BE2A5A056024F6B51AD8B7BC" overflow="visible">
            <path d="M 0 0m 2.244 0 v 5.808 h -1.969 v 1.3639998 h 5.566 v -1.3639998 h -1.9690001 v -5.808 h -1.628 Z "/>
        </symbol>
        <symbol id="g4A333C0F1BA3A66E8BB9E61BB451C721" overflow="visible">
            <path d="M 0 0m 2.354 -0.132 q -0.89100015 0 -1.2925001 0.5885 q -0.4015 0.58849996 -0.4015 1.6115 v 3.3879998 h 1.617 v -3.179 q 0 -0.594 0.16499996 -0.814 q 0.16499996 -0.21999991 0.51699996 -0.21999991 q 0.29700017 0 0.5170002 0.143 q 0.22000003 0.143 0.45099998 0.462 v 3.6079998 h 1.6170001 v -5.456 h -1.3200002 l -0.12099981 0.759 h -0.032999992 q -0.34100008 -0.407 -0.74800014 -0.649 q -0.40700006 -0.242 -0.96799994 -0.242 Z "/>
        </symbol>
        <symbol id="g4799A9E122CAE867B8F21A4FAF68108D" overflow="visible">
            <path d="M 0 0m 0.715 0 v 5.456 h 1.3200002 l 0.109999895 -0.69299984 h 0.04399991 q 0.34100008 0.34100008 0.77 0.5830002 q 0.42900014 0.24199963 0.9790001 0.24199963 q 0.9020002 0 1.2980001 -0.5885 q 0.3959999 -0.5885 0.3959999 -1.6114998 v -3.388 h -1.6170001 v 3.179 q 0 0.5940001 -0.15949988 0.8140001 q -0.15949988 0.21999979 -0.5115001 0.21999979 q -0.30799985 0 -0.5279999 -0.13749981 q -0.22000003 -0.13750005 -0.48399997 -0.39050007 v -3.685 h -1.6170001 Z "/>
        </symbol>
        <symbol id="gD3076533CC612FE214C5E09DDF550BD5" overflow="visible">
            <path d="M 0 0m 3.157 -0.132 q -0.78100014 0 -1.4080001 0.341 q -0.627 0.34100002 -0.98999995 0.979 q -0.363 0.638 -0.363 1.54 q 0 0.89100003 0.36850002 1.529 q 0.3685 0.638 0.9625 0.98449993 q 0.5940001 0.34649992 1.243 0.34649992 q 0.7809999 0 1.2980001 -0.34649992 q 0.5169997 -0.34649992 0.77 -0.9404998 q 0.25299978 -0.5940001 0.25299978 -1.3310001 q 0 -0.20900011 -0.021999836 -0.41250014 q -0.022000313 -0.2034998 -0.04400015 -0.32449985 h -3.5749998 l -0.021999955 1.122 h 2.277 q 0 0.4289999 -0.20899987 0.70949984 q -0.20900011 0.28049994 -0.6930001 0.28049994 q -0.26399994 0 -0.51699996 -0.14299965 q -0.25300002 -0.14300013 -0.41799998 -0.49500012 q -0.16500008 -0.352 -0.15400004 -0.9790001 q 0.010999918 -0.61599994 0.22549987 -0.96799994 q 0.21450019 -0.352 0.5445001 -0.50049996 q 0.32999992 -0.14850008 0.6930001 -0.14850008 q 0.319 0 0.61049986 0.09350002 q 0.29149985 0.09350002 0.5775001 0.25849998 l 0.5279999 -0.98999995 q -0.40700006 -0.28599998 -0.9239998 -0.4455 q -0.5170002 -0.1595 -1.0120001 -0.1595 Z "/>
        </symbol>
        <symbol id="g958DCD2919A02F75D6AFB96B594451ED" overflow="visible">
            <path d="M 0 0m 2.2 -0.121 q -0.5500001 0 -0.87450004 0.22549999 q -0.32449996 0.22549999 -0.46750003 0.638 q -0.143 0.41249996 -0.143 0.96250004 v 5.995 h 1.6170001 v -6.061 q 0 -0.26399994 0.0934999 -0.35749996 q 0.09350014 -0.09350002 0.20350003 -0.09350002 q 0.04400015 0 0.08249998 0.005500078 q 0.03850007 0.005499959 0.104500055 0.016499996 l 0.19799995 -1.199 q -0.13199997 -0.055 -0.3355 -0.093499996 q -0.20350003 -0.038500004 -0.4784999 -0.038500004 Z "/>
        </symbol>
    </defs>
</svg>
