<?xml version="1.0" encoding="UTF-8" standalone="no"?>
<!-- Created with Inkscape (http://www.inkscape.org/) -->

<svg
   width="64"
   height="64"
   viewBox="0 0 64 64"
   version="1.1"
   id="svg1"
   inkscape:version="1.4.3 (0d15f75042, 2025-12-25)"
   sodipodi:docname="icon.svg"
   inkscape:export-filename="icon.png"
   inkscape:export-xdpi="192"
   inkscape:export-ydpi="192"
   xmlns:inkscape="http://www.inkscape.org/namespaces/inkscape"
   xmlns:sodipodi="http://sodipodi.sourceforge.net/DTD/sodipodi-0.dtd"
   xmlns="http://www.w3.org/2000/svg"
   xmlns:svg="http://www.w3.org/2000/svg">
  <sodipodi:namedview
     id="namedview1"
     pagecolor="#ffffff"
     bordercolor="#000000"
     borderopacity="0.25"
     inkscape:showpageshadow="2"
     inkscape:pageopacity="0.0"
     inkscape:pagecheckerboard="0"
     inkscape:deskcolor="#d1d1d1"
     inkscape:document-units="mm"
     showgrid="true"
     inkscape:zoom="8.173948"
     inkscape:cx="10.949421"
     inkscape:cy="31.502525"
     inkscape:window-width="1920"
     inkscape:window-height="1016"
     inkscape:window-x="0"
     inkscape:window-y="27"
     inkscape:window-maximized="1"
     inkscape:current-layer="layer1">
    <inkscape:grid
       id="grid1"
       units="px"
       originx="0"
       originy="0"
       spacingx="1"
       spacingy="1"
       empcolor="#0099e5"
       empopacity="0.30196078"
       color="#0099e5"
       opacity="0.14901961"
       empspacing="8"
       enabled="true"
       visible="true" />
  </sodipodi:namedview>
  <defs
     id="defs1" />
  <g
     inkscape:label="Calque 1"
     inkscape:groupmode="layer"
     id="layer1">
    <g
       id="g4"
       transform="matrix(1.2456237,0,0,1.2456237,-8.4493946,0.8594075)">
      <path
         id="path1"
         style="fill:#e9e65f;stroke:#000000;stroke-linecap:round;stroke-linejoin:round;stroke-opacity:1"
         d="m 40,8 a 8,8 0 0 0 -8,8 8,8 0 0 0 4.126953,7 H 36 c 0,0 -4,-2 -10,-1 -6,1 -8,3 -10,3 -2,0 -7,-3 -7,-3 0,0 -1,12 3,16 4,4 9,4 14,4 5,0 16,-1 19,-2 3,-1 3,-8 2,-11 -0.812845,-2.438536 -2.946387,-4.877725 -3.716797,-5.705078 A 8,8 0 0 0 48,16 8,8 0 0 0 40,8 Z" />
      <path
         style="fill:#e98e42;fill-opacity:1;stroke:#000000;stroke-linecap:round;stroke-linejoin:round;stroke-opacity:1"
         d="m 48,16 c 1.613016,3.576572 5.803048,4.268098 8,4 0.636862,0.61283 -4.1777,3.269168 -6.265961,3.327131 C 47.645778,23.385091 45,22 45,22 c 0,0 2,-6 3,-6 z"
         id="path2"
         sodipodi:nodetypes="cczcc" />
      <path
         style="fill:#e9e65f;fill-opacity:1;stroke:#000000;stroke-linecap:round;stroke-linejoin:round;stroke-opacity:1"
         d="m 17,28 c 0,0 6,2 9,2 3,0 6,-3 9,-2 3,1 3,6 0,7 -3,1 -6.46607,0.883482 -10,0 -3.53393,-0.883482 -8,-7 -8,-7 z"
         id="path4"
         sodipodi:nodetypes="czzzzc" />
    </g>
  </g>
</svg>
